
<svg width="512" height="512" viewBox="0 0 512 512" xmlns="http://www.w3.org/2000/svg">
  <defs>
    <linearGradient id="g1" x1="0" y1="1" x2="1" y2="0">
      <stop offset="0" stop-color="#14b8a6"/>
      <stop offset="1" stop-color="#2752ff"/>
    </linearGradient>
    <linearGradient id="g2" x1="0" y1="1" x2="1" y2="0">
      <stop offset="0" stop-color="#0b1020"/>
      <stop offset="1" stop-color="#203269"/>
    </linearGradient>
    <filter id="soft" x="-20%" y="-20%" width="140%" height="140%">
      <feGaussianBlur in="SourceAlpha" stdDeviation="8"/>
      <feOffset dy="8" result="o"/>
      <feMerge><feMergeNode in="o"/><feMergeNode in="SourceGraphic"/></feMerge>
    </filter>
  </defs>

  <!-- rounded tile -->
  <rect x="32" y="32" width="448" height="448" rx="96" fill="url(#g1)"/>
  <!-- isometric hill -->
  <path d="M96 360 C160 300 208 300 256 328 C304 356 336 356 416 320 L416 416 L96 416 Z"
        fill="rgba(255,255,255,.18)" filter="url(#soft)"/>
  <!-- rising arrow (extruded) -->
  <g transform="translate(96,112)">
    <path d="M48 208 L144 128 L208 176 L272 64 L320 96 L208 288 L128 224 L80 256 Z"
          fill="url(#g2)" opacity=".22"/>
    <polyline points="48,208 144,128 208,176 288,48" fill="none" stroke="#ffffff" stroke-width="24" stroke-linecap="round" stroke-linejoin="round"/>
    <polygon points="288,48 256,48 288,16" fill="#ffffff"/>
  </g>
</svg>
